<svg width="56" height="56" fill="none" xmlns="http://www.w3.org/2000/svg"><path d="M34.547 15.816h10.91v2.646h-10.91v-2.646zM23.615 26.288c2.412-1.154 3.675-2.91 3.675-5.622 0-5.364-3.992-6.666-8.602-6.666H6v26.928h13.043c4.889 0 9.477-2.351 9.477-7.82 0-3.38-1.597-5.88-4.905-6.82zm-11.698-7.694h5.551c2.138 0 4.058.596 4.058 3.079 0 2.286-1.493 3.204-3.61 3.204h-5.999v-6.283zm6.317 17.762h-6.322v-7.415h6.447c2.603 0 4.25 1.088 4.25 3.844 0 2.713-1.964 3.571-4.375 3.571zm31.489-4.894c0-5.77-3.375-10.577-9.478-10.577-5.933 0-9.97 4.468-9.97 10.325 0 6.07 3.823 10.238 9.97 10.238 4.654 0 7.668-2.095 9.117-6.563h-4.72c-.514 1.668-2.603 2.543-4.227 2.543-3.14 0-4.78-1.837-4.78-4.96h14.05c.016-.323.038-.662.038-1.006zm-14.088-2.374c.17-2.565 1.881-4.167 4.44-4.167 2.691 0 4.037 1.58 4.272 4.167h-8.712z" fill="#D1D5DB"/></svg>