<svg width="56" height="56" fill="none" xmlns="http://www.w3.org/2000/svg"><path d="M28.518 0C17.366.034 9.333 9.074 9.333 19.15a19.15 19.15 0 004.765 12.666c1.808 2.06 4.63 6.369 5.711 10.002l.014.086h17.522c.003-.03.01-.057.014-.086 1.08-3.633 3.903-7.941 5.711-10.002 2.97-3.292 4.763-7.711 4.763-12.666C47.833 8.597 39.182-.032 28.518 0zm.065 10.5c-4.826 0-8.75 3.925-8.75 8.651 0 1.06-.787 1.848-1.75 1.848-.962 0-1.75-.788-1.75-1.75 0-6.755 5.497-12.152 12.25-12.152.968 0 1.75.783 1.75 1.75s-.787 1.653-1.75 1.653z" fill="#D1D5DB"/><path d="M21.51 50.46a3.902 3.902 0 01-.5-1.935L21 44.237h15.167l-.013 4.288c0 .583-.228 1.45-.506 1.936l-1.62 2.808c-.497.862-1.627 1.562-2.522 1.562H25.66c-.897 0-2.027-.7-2.525-1.562l-1.625-2.81z" fill="#4B5563"/></svg>