<svg width="56" height="56" fill="none" xmlns="http://www.w3.org/2000/svg"><path d="M37.451 42.21c-1.06-.023-1.913-.91-1.913-1.983a1.94 1.94 0 011.89-1.981h.023a1.97 1.97 0 011.96 1.98 1.97 1.97 0 01-1.96 1.984zm-9.405-8.587c-1.06.05-1.936-.793-1.982-1.864 0-1.073.83-1.96 1.89-2.009 1.037 0 1.89.819 1.913 1.867a1.917 1.917 0 01-1.82 2.006zm0 8.47c-1.06.05-1.936-.793-1.982-1.866 0-1.074.83-1.958 1.89-2.007 1.037 0 1.89.819 1.913 1.869a1.916 1.916 0 01-1.82 2.004zm-9.474-8.47c-1.06.05-1.936-.793-1.982-1.864 0-1.073.83-1.96 1.89-2.009 1.037 0 1.89.819 1.913 1.867a1.917 1.917 0 01-1.821 2.006zm-.023 8.47c-1.06.05-1.936-.793-1.983-1.866 0-1.074.83-1.958 1.89-2.007 1.038 0 1.89.819 1.914 1.869a1.916 1.916 0 01-1.821 2.004zM35.56 31.736c0-1.074.83-1.937 1.89-1.96 1.038 0 1.867.837 1.913 1.866.024 1.074-.806 1.96-1.844 1.981a1.9 1.9 0 01-1.96-1.864v-.023zM7 21.6v17.763c0 7.374 4.656 11.97 11.964 11.97h18.05C44.39 51.333 49 46.83 49 39.506V21.6H7z" fill="#D1D5DB"/><path d="M7.008 21.6c.03-1.37.145-4.088.362-4.963 1.106-4.921 4.864-8.048 10.235-8.494h20.792c5.325.47 9.129 3.617 10.235 8.494.215.851.33 3.59.36 4.962H7.008z" fill="#4B5563"/><path d="M19.378 15.377c1.014 0 1.775-.768 1.775-1.797V6.466c0-1.03-.76-1.8-1.775-1.8-1.014 0-1.775.77-1.775 1.8v7.114c0 1.029.76 1.797 1.775 1.797zm17.243 0c.992 0 1.776-.768 1.776-1.797V6.466c0-1.03-.784-1.8-1.776-1.8-1.014 0-1.774.77-1.774 1.8v7.114c0 1.029.76 1.797 1.774 1.797z" fill="#D1D5DB"/></svg>