<svg width="56" height="56" fill="none" xmlns="http://www.w3.org/2000/svg"><path d="M28 5.25C15.455 5.25 5.25 15.455 5.25 28S15.455 50.75 28 50.75 50.75 40.545 50.75 28 40.545 5.25 28 5.25zm15.044 10.49a19.317 19.317 0 014.387 12.107c-.64-.137-7.066-1.438-13.53-.624a59.47 59.47 0 00-1.706-3.817c7.18-2.936 10.44-7.11 10.85-7.667zM28 8.596a19.36 19.36 0 0112.879 4.894c-.35.498-3.276 4.43-10.183 7.022-3.183-5.851-6.71-10.653-7.252-11.375A19.363 19.363 0 0128 8.597zm-8.263 1.848c.514.7 3.986 5.518 7.202 11.239-9.089 2.411-17.095 2.378-17.965 2.368 1.264-6.032 5.327-11.042 10.763-13.607zM8.57 28.027c0-.197.005-.399.01-.596.848.017 10.265.137 19.972-2.767a62.396 62.396 0 011.575 3.298c-.257.07-.514.147-.765.23-10.024 3.248-15.356 12.08-15.8 12.83A19.372 19.372 0 018.57 28.027zM28 47.457a19.315 19.315 0 01-11.927-4.1c.35-.717 4.282-8.313 15.241-12.136l.126-.044c2.729 7.088 3.855 13.032 4.145 14.739A19.165 19.165 0 0128 47.458zm10.855-3.319c-.196-1.181-1.23-6.868-3.773-13.852 6.092-.974 11.44.623 12.102.831-.864 5.403-3.965 10.074-8.328 13.021z" fill="#D1D5DB"/></svg>