<svg width="46" height="48" fill="none" xmlns="http://www.w3.org/2000/svg"><path d="M16.314 44.471v-7.134c0-1.822 1.488-3.298 3.322-3.298h6.707c.88 0 1.726.347 2.349.966.623.618.973 1.457.973 2.331v7.135a2.83 2.83 0 00.83 2.023c.538.537 1.27.84 2.032.84h4.575a8.074 8.074 0 005.701-2.332 7.956 7.956 0 002.364-5.654V19.023a5.77 5.77 0 00-2.09-4.439L27.514 2.244a7.227 7.227 0 00-9.214.166L3.09 14.584a5.773 5.773 0 00-2.256 4.439v20.305c0 4.421 3.61 8.005 8.065 8.005h4.47a2.873 2.873 0 002.884-2.841l.063-.02z" fill="#F9FAFB"/></svg>