<svg width="56" height="56" fill="none" xmlns="http://www.w3.org/2000/svg"><g clip-path="url(#clip0_102_91)"><path d="M22.5.973a2.688 2.688 0 01.28 3.003 25.228 25.228 0 00-3.073 12.11c0 14.074 11.473 25.47 25.613 25.47 1.844 0 3.64-.193 5.365-.56a2.754 2.754 0 012.835 1.106 2.565 2.565 0 01-.108 3.125A29.221 29.221 0 0130.704 56C14.569 56 1.5 43.001 1.5 26.985 1.5 14.931 8.899 4.592 19.434.21A2.632 2.632 0 0122.5.973z" fill="#4B5563"/><path d="M21 .973a2.688 2.688 0 01.28 3.003 25.228 25.228 0 00-3.073 12.11c0 14.073 11.473 25.47 25.613 25.47 1.844 0 3.64-.193 5.365-.56A2.755 2.755 0 0152.02 42.1a2.566 2.566 0 01-.108 3.126A29.22 29.22 0 0129.204 56C13.069 56 0 43 0 26.985 0 14.93 7.399 4.592 17.934.21A2.632 2.632 0 0121 .973z" fill="#D1D5DB"/></g><defs><clipPath id="clip0_102_91"><path fill="#fff" d="M0 0h56v56H0z"/></clipPath></defs></svg>