<svg width="56" height="56" fill="none" xmlns="http://www.w3.org/2000/svg"><path d="M51.333 37.194c0 6.51-5.227 11.783-11.737 11.806H16.45C9.963 49 4.666 43.75 4.666 37.24v-.023S4.68 26.89 4.7 21.696c.002-.976 1.122-1.522 1.885-.915C12.128 25.18 22.043 33.2 22.166 33.304a9.491 9.491 0 005.904 2.077 9.365 9.365 0 005.903-2.102c.124-.082 9.816-7.862 15.444-12.332.766-.61 1.89-.063 1.893.91.023 5.154.023 15.337.023 15.337z" fill="#4B5563"/><path d="M50.11 13.238A11.749 11.749 0 0039.738 7H16.45a11.749 11.749 0 00-10.374 6.24 2.015 2.015 0 00.516 2.515L23.917 29.61a6.595 6.595 0 004.153 1.468h.047c1.47 0 2.94-.488 4.153-1.468l17.325-13.857a2.015 2.015 0 00.516-2.516z" fill="#D1D5DB"/></svg>