<svg width="56" height="56" fill="none" xmlns="http://www.w3.org/2000/svg"><path d="M55.167 11.52a21.764 21.764 0 01-6.242 1.71 10.897 10.897 0 004.779-6.015 21.7 21.7 0 01-6.902 2.636 10.873 10.873 0 00-18.522 9.917A30.868 30.868 0 015.875 8.409a10.865 10.865 0 00-1.47 5.465 10.874 10.874 0 004.835 9.049 10.843 10.843 0 01-4.923-1.36v.14a10.873 10.873 0 008.72 10.658c-1.602.433-3.28.497-4.91.187a10.875 10.875 0 0010.155 7.546A21.811 21.811 0 014.78 44.749c-.867 0-1.733-.05-2.595-.152a30.742 30.742 0 0016.66 4.884c19.997 0 30.929-16.562 30.929-30.926 0-.467-.012-.938-.033-1.405a22.095 22.095 0 005.42-5.623l.005-.007z" fill="#D1D5DB"/><circle cx="40.833" cy="14" r="3.5" fill="#4B5563"/></svg>